<?xml version="1.0" encoding="UTF-8" standalone="no"?>
<svg xmlns="http://www.w3.org/2000/svg" viewBox="0 0 410 420.57" width="4.3025in" height="4.4133in">
<rect x="0" y="0" width="410" height="420.57" fill="#FFFFFF"/>
<text x="205.0" y="23.7" text-anchor="middle" font-size="14.56" font-weight="700" fill="#8A3D0A" font-family="Times New Roman, Liberation Serif, Nimbus Roman, Times, serif">[CNN · CIFAR-10 (aggregate)]</text>
<g transform="translate(0,40.57)">
<text x="235.0" y="36" text-anchor="middle" font-size="11" fill="#47525C" font-family="Times New Roman, Liberation Serif, Nimbus Roman, Times, serif" font-weight="600">predicted (analyzer)</text>
<text x="119.0" y="56" text-anchor="middle" font-size="10" fill="#47525C" font-family="Times New Roman, Liberation Serif, Nimbus Roman, Times, serif" font-weight="600">download</text>
<text x="177.0" y="56" text-anchor="middle" font-size="10" fill="#47525C" font-family="Times New Roman, Liberation Serif, Nimbus Roman, Times, serif" font-weight="600">fit</text>
<text x="235.0" y="56" text-anchor="middle" font-size="10" fill="#47525C" font-family="Times New Roman, Liberation Serif, Nimbus Roman, Times, serif" font-weight="600">upload</text>
<text x="293.0" y="56" text-anchor="middle" font-size="10" fill="#47525C" font-family="Times New Roman, Liberation Serif, Nimbus Roman, Times, serif" font-weight="600">idle</text>
<text x="351.0" y="56" text-anchor="middle" font-size="10" fill="#47525C" font-family="Times New Roman, Liberation Serif, Nimbus Roman, Times, serif" font-weight="600">(none)</text>
<text x="38" y="215.0" text-anchor="middle" font-size="11" fill="#47525C" font-family="Times New Roman, Liberation Serif, Nimbus Roman, Times, serif" font-weight="600" transform="rotate(-90 38 215.0)">true (client log)</text>
<text x="80" y="103.0" text-anchor="end" font-size="10" fill="#47525C" font-family="Times New Roman, Liberation Serif, Nimbus Roman, Times, serif" font-weight="600">download</text>
<text x="80" y="161.0" text-anchor="end" font-size="10" fill="#47525C" font-family="Times New Roman, Liberation Serif, Nimbus Roman, Times, serif" font-weight="600">fit</text>
<text x="80" y="219.0" text-anchor="end" font-size="10" fill="#47525C" font-family="Times New Roman, Liberation Serif, Nimbus Roman, Times, serif" font-weight="600">upload</text>
<text x="80" y="277.0" text-anchor="end" font-size="10" fill="#47525C" font-family="Times New Roman, Liberation Serif, Nimbus Roman, Times, serif" font-weight="600">idle</text>
<text x="80" y="335.0" text-anchor="end" font-size="10" fill="#47525C" font-family="Times New Roman, Liberation Serif, Nimbus Roman, Times, serif" font-weight="600">(none)</text>
<rect x="90.0" y="70.0" width="56" height="56" rx="4" fill="#EFF2F4" stroke="#DCE1E5" stroke-width="1"/>
<rect x="90.0" y="70.0" width="56" height="56" rx="4" fill="#0CA30C" opacity="0.80"/>
<text x="118.0" y="103.0" text-anchor="middle" font-size="11.5" font-family="Times New Roman, Liberation Serif, Nimbus Roman, Times, serif" font-weight="700" fill="#FCFCFC">497</text>
<rect x="148.0" y="70.0" width="56" height="56" rx="4" fill="#EFF2F4" stroke="#DCE1E5" stroke-width="1"/>
<rect x="206.0" y="70.0" width="56" height="56" rx="4" fill="#EFF2F4" stroke="#DCE1E5" stroke-width="1"/>
<rect x="264.0" y="70.0" width="56" height="56" rx="4" fill="#EFF2F4" stroke="#DCE1E5" stroke-width="1"/>
<rect x="322.0" y="70.0" width="56" height="56" rx="4" fill="#EFF2F4" stroke="#DCE1E5" stroke-width="1"/>
<rect x="322.0" y="70.0" width="56" height="56" rx="4" fill="#B8271F" opacity="0.68"/>
<text x="350.0" y="103.0" text-anchor="middle" font-size="11.5" font-family="Times New Roman, Liberation Serif, Nimbus Roman, Times, serif" font-weight="700" fill="#FCFCFC">3</text>
<rect x="90.0" y="128.0" width="56" height="56" rx="4" fill="#EFF2F4" stroke="#DCE1E5" stroke-width="1"/>
<rect x="148.0" y="128.0" width="56" height="56" rx="4" fill="#EFF2F4" stroke="#DCE1E5" stroke-width="1"/>
<rect x="148.0" y="128.0" width="56" height="56" rx="4" fill="#0CA30C" opacity="0.80"/>
<text x="176.0" y="161.0" text-anchor="middle" font-size="11.5" font-family="Times New Roman, Liberation Serif, Nimbus Roman, Times, serif" font-weight="700" fill="#FCFCFC">497</text>
<rect x="206.0" y="128.0" width="56" height="56" rx="4" fill="#EFF2F4" stroke="#DCE1E5" stroke-width="1"/>
<rect x="264.0" y="128.0" width="56" height="56" rx="4" fill="#EFF2F4" stroke="#DCE1E5" stroke-width="1"/>
<rect x="322.0" y="128.0" width="56" height="56" rx="4" fill="#EFF2F4" stroke="#DCE1E5" stroke-width="1"/>
<rect x="322.0" y="128.0" width="56" height="56" rx="4" fill="#B8271F" opacity="0.68"/>
<text x="350.0" y="161.0" text-anchor="middle" font-size="11.5" font-family="Times New Roman, Liberation Serif, Nimbus Roman, Times, serif" font-weight="700" fill="#FCFCFC">3</text>
<rect x="90.0" y="186.0" width="56" height="56" rx="4" fill="#EFF2F4" stroke="#DCE1E5" stroke-width="1"/>
<rect x="148.0" y="186.0" width="56" height="56" rx="4" fill="#EFF2F4" stroke="#DCE1E5" stroke-width="1"/>
<rect x="206.0" y="186.0" width="56" height="56" rx="4" fill="#EFF2F4" stroke="#DCE1E5" stroke-width="1"/>
<rect x="206.0" y="186.0" width="56" height="56" rx="4" fill="#0CA30C" opacity="0.80"/>
<text x="234.0" y="219.0" text-anchor="middle" font-size="11.5" font-family="Times New Roman, Liberation Serif, Nimbus Roman, Times, serif" font-weight="700" fill="#FCFCFC">497</text>
<rect x="264.0" y="186.0" width="56" height="56" rx="4" fill="#EFF2F4" stroke="#DCE1E5" stroke-width="1"/>
<rect x="322.0" y="186.0" width="56" height="56" rx="4" fill="#EFF2F4" stroke="#DCE1E5" stroke-width="1"/>
<rect x="322.0" y="186.0" width="56" height="56" rx="4" fill="#B8271F" opacity="0.68"/>
<text x="350.0" y="219.0" text-anchor="middle" font-size="11.5" font-family="Times New Roman, Liberation Serif, Nimbus Roman, Times, serif" font-weight="700" fill="#FCFCFC">3</text>
<rect x="90.0" y="244.0" width="56" height="56" rx="4" fill="#EFF2F4" stroke="#DCE1E5" stroke-width="1"/>
<rect x="148.0" y="244.0" width="56" height="56" rx="4" fill="#EFF2F4" stroke="#DCE1E5" stroke-width="1"/>
<rect x="206.0" y="244.0" width="56" height="56" rx="4" fill="#EFF2F4" stroke="#DCE1E5" stroke-width="1"/>
<rect x="264.0" y="244.0" width="56" height="56" rx="4" fill="#EFF2F4" stroke="#DCE1E5" stroke-width="1"/>
<text x="292.0" y="277.0" text-anchor="middle" font-size="11.5" font-family="Times New Roman, Liberation Serif, Nimbus Roman, Times, serif" font-weight="700" fill="#7C8791">0</text>
<rect x="322.0" y="244.0" width="56" height="56" rx="4" fill="#EFF2F4" stroke="#DCE1E5" stroke-width="1"/>
<rect x="90.0" y="302.0" width="56" height="56" rx="4" fill="#EFF2F4" stroke="#DCE1E5" stroke-width="1"/>
<rect x="90.0" y="302.0" width="56" height="56" rx="4" fill="#B8271F" opacity="0.46"/>
<text x="118.0" y="335.0" text-anchor="middle" font-size="11.5" font-family="Times New Roman, Liberation Serif, Nimbus Roman, Times, serif" font-weight="700" fill="#10161C">1</text>
<rect x="148.0" y="302.0" width="56" height="56" rx="4" fill="#EFF2F4" stroke="#DCE1E5" stroke-width="1"/>
<rect x="148.0" y="302.0" width="56" height="56" rx="4" fill="#B8271F" opacity="0.46"/>
<text x="176.0" y="335.0" text-anchor="middle" font-size="11.5" font-family="Times New Roman, Liberation Serif, Nimbus Roman, Times, serif" font-weight="700" fill="#10161C">1</text>
<rect x="206.0" y="302.0" width="56" height="56" rx="4" fill="#EFF2F4" stroke="#DCE1E5" stroke-width="1"/>
<rect x="206.0" y="302.0" width="56" height="56" rx="4" fill="#B8271F" opacity="0.46"/>
<text x="234.0" y="335.0" text-anchor="middle" font-size="11.5" font-family="Times New Roman, Liberation Serif, Nimbus Roman, Times, serif" font-weight="700" fill="#10161C">1</text>
<rect x="264.0" y="302.0" width="56" height="56" rx="4" fill="#EFF2F4" stroke="#DCE1E5" stroke-width="1"/>
<rect x="264.0" y="302.0" width="56" height="56" rx="4" fill="#B8271F" opacity="0.90"/>
<text x="292.0" y="335.0" text-anchor="middle" font-size="11.5" font-family="Times New Roman, Liberation Serif, Nimbus Roman, Times, serif" font-weight="700" fill="#FCFCFC">5</text>
<rect x="322.0" y="302.0" width="56" height="56" rx="4" fill="#EFF2F4" stroke="#DCE1E5" stroke-width="1"/>
<text x="350.0" y="335.0" text-anchor="middle" font-size="11.5" font-family="Times New Roman, Liberation Serif, Nimbus Roman, Times, serif" font-weight="700" fill="#7C8791">0</text>
</g>
</svg>
