<?xml version="1.0" encoding="UTF-8" standalone="no"?>
<svg xmlns="http://www.w3.org/2000/svg" viewBox="0 0 320 319.75" width="4.5791in" height="4.5755in">
<rect x="0" y="0" width="320" height="319.75" fill="#FFFFFF"/>
<text x="160.0" y="17.4" text-anchor="middle" font-size="10.68" font-weight="700" fill="#8A3D0A" font-family="Times New Roman, Liberation Serif, Nimbus Roman, Times, serif">[CNN · client .145]</text>
<g transform="translate(0,29.75)">
<text x="170.0" y="21" text-anchor="middle" font-size="11" fill="#47525C" font-family="Times New Roman, Liberation Serif, Nimbus Roman, Times, serif" font-weight="600">predicted (analyzer)</text>
<text x="90.0" y="41" text-anchor="middle" font-size="8.5" fill="#47525C" font-family="Times New Roman, Liberation Serif, Nimbus Roman, Times, serif" font-weight="600">download</text>
<text x="130.0" y="41" text-anchor="middle" font-size="8.5" fill="#47525C" font-family="Times New Roman, Liberation Serif, Nimbus Roman, Times, serif" font-weight="600">fit</text>
<text x="170.0" y="41" text-anchor="middle" font-size="8.5" fill="#47525C" font-family="Times New Roman, Liberation Serif, Nimbus Roman, Times, serif" font-weight="600">upload</text>
<text x="210.0" y="41" text-anchor="middle" font-size="8.5" fill="#47525C" font-family="Times New Roman, Liberation Serif, Nimbus Roman, Times, serif" font-weight="600">idle</text>
<text x="250.0" y="41" text-anchor="middle" font-size="8.5" fill="#47525C" font-family="Times New Roman, Liberation Serif, Nimbus Roman, Times, serif" font-weight="600">(none)</text>
<text x="18" y="155.0" text-anchor="middle" font-size="11" fill="#47525C" font-family="Times New Roman, Liberation Serif, Nimbus Roman, Times, serif" font-weight="600" transform="rotate(-90 18 155.0)">true (client log)</text>
<text x="60" y="79.0" text-anchor="end" font-size="8.5" fill="#47525C" font-family="Times New Roman, Liberation Serif, Nimbus Roman, Times, serif" font-weight="600">download</text>
<text x="60" y="119.0" text-anchor="end" font-size="8.5" fill="#47525C" font-family="Times New Roman, Liberation Serif, Nimbus Roman, Times, serif" font-weight="600">fit</text>
<text x="60" y="159.0" text-anchor="end" font-size="8.5" fill="#47525C" font-family="Times New Roman, Liberation Serif, Nimbus Roman, Times, serif" font-weight="600">upload</text>
<text x="60" y="199.0" text-anchor="end" font-size="8.5" fill="#47525C" font-family="Times New Roman, Liberation Serif, Nimbus Roman, Times, serif" font-weight="600">idle</text>
<text x="60" y="239.0" text-anchor="end" font-size="8.5" fill="#47525C" font-family="Times New Roman, Liberation Serif, Nimbus Roman, Times, serif" font-weight="600">(none)</text>
<rect x="70.0" y="55.0" width="38" height="38" rx="4" fill="#EFF2F4" stroke="#DCE1E5" stroke-width="1"/>
<rect x="70.0" y="55.0" width="38" height="38" rx="4" fill="#0CA30C" opacity="0.80"/>
<text x="89.0" y="77.8" text-anchor="middle" font-size="8.0" font-family="Times New Roman, Liberation Serif, Nimbus Roman, Times, serif" font-weight="700" fill="#FCFCFC">99</text>
<rect x="110.0" y="55.0" width="38" height="38" rx="4" fill="#EFF2F4" stroke="#DCE1E5" stroke-width="1"/>
<rect x="150.0" y="55.0" width="38" height="38" rx="4" fill="#EFF2F4" stroke="#DCE1E5" stroke-width="1"/>
<rect x="190.0" y="55.0" width="38" height="38" rx="4" fill="#EFF2F4" stroke="#DCE1E5" stroke-width="1"/>
<rect x="230.0" y="55.0" width="38" height="38" rx="4" fill="#EFF2F4" stroke="#DCE1E5" stroke-width="1"/>
<rect x="230.0" y="55.0" width="38" height="38" rx="4" fill="#B8271F" opacity="0.90"/>
<text x="249.0" y="77.8" text-anchor="middle" font-size="8.0" font-family="Times New Roman, Liberation Serif, Nimbus Roman, Times, serif" font-weight="700" fill="#FCFCFC">1</text>
<rect x="70.0" y="95.0" width="38" height="38" rx="4" fill="#EFF2F4" stroke="#DCE1E5" stroke-width="1"/>
<rect x="110.0" y="95.0" width="38" height="38" rx="4" fill="#EFF2F4" stroke="#DCE1E5" stroke-width="1"/>
<rect x="110.0" y="95.0" width="38" height="38" rx="4" fill="#0CA30C" opacity="0.80"/>
<text x="129.0" y="117.8" text-anchor="middle" font-size="8.0" font-family="Times New Roman, Liberation Serif, Nimbus Roman, Times, serif" font-weight="700" fill="#FCFCFC">99</text>
<rect x="150.0" y="95.0" width="38" height="38" rx="4" fill="#EFF2F4" stroke="#DCE1E5" stroke-width="1"/>
<rect x="190.0" y="95.0" width="38" height="38" rx="4" fill="#EFF2F4" stroke="#DCE1E5" stroke-width="1"/>
<rect x="230.0" y="95.0" width="38" height="38" rx="4" fill="#EFF2F4" stroke="#DCE1E5" stroke-width="1"/>
<rect x="230.0" y="95.0" width="38" height="38" rx="4" fill="#B8271F" opacity="0.90"/>
<text x="249.0" y="117.8" text-anchor="middle" font-size="8.0" font-family="Times New Roman, Liberation Serif, Nimbus Roman, Times, serif" font-weight="700" fill="#FCFCFC">1</text>
<rect x="70.0" y="135.0" width="38" height="38" rx="4" fill="#EFF2F4" stroke="#DCE1E5" stroke-width="1"/>
<rect x="110.0" y="135.0" width="38" height="38" rx="4" fill="#EFF2F4" stroke="#DCE1E5" stroke-width="1"/>
<rect x="150.0" y="135.0" width="38" height="38" rx="4" fill="#EFF2F4" stroke="#DCE1E5" stroke-width="1"/>
<rect x="150.0" y="135.0" width="38" height="38" rx="4" fill="#0CA30C" opacity="0.80"/>
<text x="169.0" y="157.8" text-anchor="middle" font-size="8.0" font-family="Times New Roman, Liberation Serif, Nimbus Roman, Times, serif" font-weight="700" fill="#FCFCFC">99</text>
<rect x="190.0" y="135.0" width="38" height="38" rx="4" fill="#EFF2F4" stroke="#DCE1E5" stroke-width="1"/>
<rect x="230.0" y="135.0" width="38" height="38" rx="4" fill="#EFF2F4" stroke="#DCE1E5" stroke-width="1"/>
<rect x="230.0" y="135.0" width="38" height="38" rx="4" fill="#B8271F" opacity="0.90"/>
<text x="249.0" y="157.8" text-anchor="middle" font-size="8.0" font-family="Times New Roman, Liberation Serif, Nimbus Roman, Times, serif" font-weight="700" fill="#FCFCFC">1</text>
<rect x="70.0" y="175.0" width="38" height="38" rx="4" fill="#EFF2F4" stroke="#DCE1E5" stroke-width="1"/>
<rect x="110.0" y="175.0" width="38" height="38" rx="4" fill="#EFF2F4" stroke="#DCE1E5" stroke-width="1"/>
<rect x="150.0" y="175.0" width="38" height="38" rx="4" fill="#EFF2F4" stroke="#DCE1E5" stroke-width="1"/>
<rect x="190.0" y="175.0" width="38" height="38" rx="4" fill="#EFF2F4" stroke="#DCE1E5" stroke-width="1"/>
<text x="209.0" y="197.8" text-anchor="middle" font-size="8.0" font-family="Times New Roman, Liberation Serif, Nimbus Roman, Times, serif" font-weight="700" fill="#7C8791">0</text>
<rect x="230.0" y="175.0" width="38" height="38" rx="4" fill="#EFF2F4" stroke="#DCE1E5" stroke-width="1"/>
<rect x="70.0" y="215.0" width="38" height="38" rx="4" fill="#EFF2F4" stroke="#DCE1E5" stroke-width="1"/>
<rect x="70.0" y="215.0" width="38" height="38" rx="4" fill="#B8271F" opacity="0.90"/>
<text x="89.0" y="237.8" text-anchor="middle" font-size="8.0" font-family="Times New Roman, Liberation Serif, Nimbus Roman, Times, serif" font-weight="700" fill="#FCFCFC">1</text>
<rect x="110.0" y="215.0" width="38" height="38" rx="4" fill="#EFF2F4" stroke="#DCE1E5" stroke-width="1"/>
<rect x="110.0" y="215.0" width="38" height="38" rx="4" fill="#B8271F" opacity="0.90"/>
<text x="129.0" y="237.8" text-anchor="middle" font-size="8.0" font-family="Times New Roman, Liberation Serif, Nimbus Roman, Times, serif" font-weight="700" fill="#FCFCFC">1</text>
<rect x="150.0" y="215.0" width="38" height="38" rx="4" fill="#EFF2F4" stroke="#DCE1E5" stroke-width="1"/>
<rect x="150.0" y="215.0" width="38" height="38" rx="4" fill="#B8271F" opacity="0.90"/>
<text x="169.0" y="237.8" text-anchor="middle" font-size="8.0" font-family="Times New Roman, Liberation Serif, Nimbus Roman, Times, serif" font-weight="700" fill="#FCFCFC">1</text>
<rect x="190.0" y="215.0" width="38" height="38" rx="4" fill="#EFF2F4" stroke="#DCE1E5" stroke-width="1"/>
<rect x="190.0" y="215.0" width="38" height="38" rx="4" fill="#B8271F" opacity="0.90"/>
<text x="209.0" y="237.8" text-anchor="middle" font-size="8.0" font-family="Times New Roman, Liberation Serif, Nimbus Roman, Times, serif" font-weight="700" fill="#FCFCFC">1</text>
<rect x="230.0" y="215.0" width="38" height="38" rx="4" fill="#EFF2F4" stroke="#DCE1E5" stroke-width="1"/>
<text x="249.0" y="237.8" text-anchor="middle" font-size="8.0" font-family="Times New Roman, Liberation Serif, Nimbus Roman, Times, serif" font-weight="700" fill="#7C8791">0</text>
</g>
</svg>
