<?xml version="1.0" encoding="UTF-8" standalone="no"?>
<svg xmlns="http://www.w3.org/2000/svg" viewBox="0 0 520 273.35" width="6.6366in" height="3.4888in">
<rect x="0" y="0" width="520" height="273.35" fill="#FFFFFF"/>
<text x="260.0" y="19.5" text-anchor="middle" font-size="11.97" font-weight="700" fill="#8A3D0A" font-family="Times New Roman, Liberation Serif, Nimbus Roman, Times, serif">[CNN · CIFAR-10]</text>
<g transform="translate(0,33.35)">
<line x1="70" y1="24.0" x2="490" y2="24.0" stroke="#DCE1E5" stroke-width="1"/>
<text x="62" y="27.0" text-anchor="end" font-size="9" fill="#7C8791" font-family="Times New Roman, Liberation Serif, Nimbus Roman, Times, serif">1 (most trusted)</text>
<line x1="70" y1="74.0" x2="490" y2="74.0" stroke="#DCE1E5" stroke-width="1"/>
<text x="62" y="77.0" text-anchor="end" font-size="9" fill="#7C8791" font-family="Times New Roman, Liberation Serif, Nimbus Roman, Times, serif">2</text>
<line x1="70" y1="124.0" x2="490" y2="124.0" stroke="#DCE1E5" stroke-width="1"/>
<text x="62" y="127.0" text-anchor="end" font-size="9" fill="#7C8791" font-family="Times New Roman, Liberation Serif, Nimbus Roman, Times, serif">3</text>
<line x1="70" y1="174.0" x2="490" y2="174.0" stroke="#DCE1E5" stroke-width="1"/>
<text x="62" y="177.0" text-anchor="end" font-size="9" fill="#7C8791" font-family="Times New Roman, Liberation Serif, Nimbus Roman, Times, serif">4</text>
<line x1="70" y1="224.0" x2="490" y2="224.0" stroke="#DCE1E5" stroke-width="1"/>
<text x="62" y="227.0" text-anchor="end" font-size="9" fill="#7C8791" font-family="Times New Roman, Liberation Serif, Nimbus Roman, Times, serif">5 (least trusted)</text>
<line x1="154.8" y1="24" x2="154.8" y2="224" stroke="#B8271F" stroke-width="1.5" stroke-dasharray="4,3"/>
<text x="158.8" y="218.0" font-size="9" fill="#B8271F" font-family="Times New Roman, Liberation Serif, Nimbus Roman, Times, serif" font-weight="600">attack begins (r21)</text>
<polyline points="154.8,24.0 159.1,24.0 163.3,74.0 167.6,74.0 171.8,124.0 176.1,74.0 180.3,74.0 184.5,24.0 188.8,74.0 193.0,74.0 197.3,24.0 201.5,74.0 205.8,24.0 210.0,24.0 214.2,74.0 218.5,124.0 222.7,74.0 227.0,24.0 231.2,74.0 235.5,74.0 239.7,24.0 243.9,74.0 248.2,74.0 252.4,74.0 256.7,74.0 260.9,24.0 265.2,24.0 269.4,24.0 273.6,24.0 277.9,24.0 282.1,24.0 286.4,24.0 290.6,74.0 294.8,24.0 299.1,24.0 303.3,24.0 307.6,24.0 311.8,224.0 316.1,24.0 320.3,24.0 324.5,24.0 328.8,24.0 333.0,24.0 337.3,24.0 341.5,24.0 345.8,24.0 350.0,24.0 354.2,24.0 358.5,24.0 371.2,24.0 375.5,224.0 379.7,24.0 392.4,24.0 396.7,24.0 400.9,24.0 409.4,24.0 413.6,24.0 426.4,74.0 430.6,24.0 434.8,24.0 439.1,74.0 443.3,24.0 447.6,24.0 451.8,24.0 456.1,24.0 460.3,74.0 464.5,24.0 468.8,24.0 473.0,74.0 477.3,24.0 481.5,24.0 485.8,24.0 490.0,24.0" fill="none" stroke="#B8271F" stroke-width="1.6" opacity="0.55" stroke-linejoin="round"/>
<circle cx="154.8" cy="24.0" r="2.6" fill="#B8271F"/>
<circle cx="159.1" cy="24.0" r="2.6" fill="#B8271F"/>
<circle cx="163.3" cy="74.0" r="2.6" fill="#B8271F"/>
<circle cx="167.6" cy="74.0" r="2.6" fill="#B8271F"/>
<circle cx="171.8" cy="124.0" r="2.6" fill="#B8271F"/>
<circle cx="176.1" cy="74.0" r="2.6" fill="#B8271F"/>
<circle cx="180.3" cy="74.0" r="2.6" fill="#B8271F"/>
<circle cx="184.5" cy="24.0" r="2.6" fill="#B8271F"/>
<circle cx="188.8" cy="74.0" r="2.6" fill="#B8271F"/>
<circle cx="193.0" cy="74.0" r="2.6" fill="#B8271F"/>
<circle cx="197.3" cy="24.0" r="2.6" fill="#B8271F"/>
<circle cx="201.5" cy="74.0" r="2.6" fill="#B8271F"/>
<circle cx="205.8" cy="24.0" r="2.6" fill="#B8271F"/>
<circle cx="210.0" cy="24.0" r="2.6" fill="#B8271F"/>
<circle cx="214.2" cy="74.0" r="2.6" fill="#B8271F"/>
<circle cx="218.5" cy="124.0" r="2.6" fill="#B8271F"/>
<circle cx="222.7" cy="74.0" r="2.6" fill="#B8271F"/>
<circle cx="227.0" cy="24.0" r="2.6" fill="#B8271F"/>
<circle cx="231.2" cy="74.0" r="2.6" fill="#B8271F"/>
<circle cx="235.5" cy="74.0" r="2.6" fill="#B8271F"/>
<circle cx="239.7" cy="24.0" r="2.6" fill="#B8271F"/>
<circle cx="243.9" cy="74.0" r="2.6" fill="#B8271F"/>
<circle cx="248.2" cy="74.0" r="2.6" fill="#B8271F"/>
<circle cx="252.4" cy="74.0" r="2.6" fill="#B8271F"/>
<circle cx="256.7" cy="74.0" r="2.6" fill="#B8271F"/>
<circle cx="260.9" cy="24.0" r="2.6" fill="#B8271F"/>
<circle cx="265.2" cy="24.0" r="2.6" fill="#B8271F"/>
<circle cx="269.4" cy="24.0" r="2.6" fill="#B8271F"/>
<circle cx="273.6" cy="24.0" r="2.6" fill="#B8271F"/>
<circle cx="277.9" cy="24.0" r="2.6" fill="#B8271F"/>
<circle cx="282.1" cy="24.0" r="2.6" fill="#B8271F"/>
<circle cx="286.4" cy="24.0" r="2.6" fill="#B8271F"/>
<circle cx="290.6" cy="74.0" r="2.6" fill="#B8271F"/>
<circle cx="294.8" cy="24.0" r="2.6" fill="#B8271F"/>
<circle cx="299.1" cy="24.0" r="2.6" fill="#B8271F"/>
<circle cx="303.3" cy="24.0" r="2.6" fill="#B8271F"/>
<circle cx="307.6" cy="24.0" r="2.6" fill="#B8271F"/>
<circle cx="311.8" cy="224.0" r="2.6" fill="#B8271F"/>
<circle cx="316.1" cy="24.0" r="2.6" fill="#B8271F"/>
<circle cx="320.3" cy="24.0" r="2.6" fill="#B8271F"/>
<circle cx="324.5" cy="24.0" r="2.6" fill="#B8271F"/>
<circle cx="328.8" cy="24.0" r="2.6" fill="#B8271F"/>
<circle cx="333.0" cy="24.0" r="2.6" fill="#B8271F"/>
<circle cx="337.3" cy="24.0" r="2.6" fill="#B8271F"/>
<circle cx="341.5" cy="24.0" r="2.6" fill="#B8271F"/>
<circle cx="345.8" cy="24.0" r="2.6" fill="#B8271F"/>
<circle cx="350.0" cy="24.0" r="2.6" fill="#B8271F"/>
<circle cx="354.2" cy="24.0" r="2.6" fill="#B8271F"/>
<circle cx="358.5" cy="24.0" r="2.6" fill="#B8271F"/>
<circle cx="371.2" cy="24.0" r="2.6" fill="#B8271F"/>
<circle cx="375.5" cy="224.0" r="2.6" fill="#B8271F"/>
<circle cx="379.7" cy="24.0" r="2.6" fill="#B8271F"/>
<circle cx="392.4" cy="24.0" r="2.6" fill="#B8271F"/>
<circle cx="396.7" cy="24.0" r="2.6" fill="#B8271F"/>
<circle cx="400.9" cy="24.0" r="2.6" fill="#B8271F"/>
<circle cx="409.4" cy="24.0" r="2.6" fill="#B8271F"/>
<circle cx="413.6" cy="24.0" r="2.6" fill="#B8271F"/>
<circle cx="426.4" cy="74.0" r="2.6" fill="#B8271F"/>
<circle cx="430.6" cy="24.0" r="2.6" fill="#B8271F"/>
<circle cx="434.8" cy="24.0" r="2.6" fill="#B8271F"/>
<circle cx="439.1" cy="74.0" r="2.6" fill="#B8271F"/>
<circle cx="443.3" cy="24.0" r="2.6" fill="#B8271F"/>
<circle cx="447.6" cy="24.0" r="2.6" fill="#B8271F"/>
<circle cx="451.8" cy="24.0" r="2.6" fill="#B8271F"/>
<circle cx="456.1" cy="24.0" r="2.6" fill="#B8271F"/>
<circle cx="460.3" cy="74.0" r="2.6" fill="#B8271F"/>
<circle cx="464.5" cy="24.0" r="2.6" fill="#B8271F"/>
<circle cx="468.8" cy="24.0" r="2.6" fill="#B8271F"/>
<circle cx="473.0" cy="74.0" r="2.6" fill="#B8271F"/>
<circle cx="477.3" cy="24.0" r="2.6" fill="#B8271F"/>
<circle cx="481.5" cy="24.0" r="2.6" fill="#B8271F"/>
<circle cx="485.8" cy="24.0" r="2.6" fill="#B8271F"/>
<circle cx="490.0" cy="24.0" r="2.6" fill="#B8271F"/>
<text x="490.0" y="16.0" text-anchor="end" font-size="11.5" fill="#B8271F" font-family="Times New Roman, Liberation Serif, Nimbus Roman, Times, serif" font-weight="700">rank 1 on 67% of rounds since attack began</text>
<text x="70.0" y="240.0" text-anchor="middle" font-size="9.5" fill="#7C8791" font-family="Times New Roman, Liberation Serif, Nimbus Roman, Times, serif">1</text>
<text x="171.8" y="240.0" text-anchor="middle" font-size="9.5" fill="#7C8791" font-family="Times New Roman, Liberation Serif, Nimbus Roman, Times, serif">25</text>
<text x="277.9" y="240.0" text-anchor="middle" font-size="9.5" fill="#7C8791" font-family="Times New Roman, Liberation Serif, Nimbus Roman, Times, serif">50</text>
<text x="383.9" y="240.0" text-anchor="middle" font-size="9.5" fill="#7C8791" font-family="Times New Roman, Liberation Serif, Nimbus Roman, Times, serif">75</text>
<text x="490.0" y="240.0" text-anchor="middle" font-size="9.5" fill="#7C8791" font-family="Times New Roman, Liberation Serif, Nimbus Roman, Times, serif">100</text>
</g>
</svg>
