<?xml version="1.0" encoding="UTF-8" standalone="no"?>
<svg xmlns="http://www.w3.org/2000/svg" viewBox="0 0 560 494.26" width="6.9591in" height="6.1421in">
<rect x="0" y="0" width="560" height="494.26" fill="#FFFFFF"/>
<text x="280.0" y="20.0" text-anchor="middle" font-size="12.29" font-weight="700" fill="#3F1D5C" font-family="Times New Roman, Liberation Serif, Nimbus Roman, Times, serif">[RNN vs. CNN]</text>
<g transform="translate(0,34.26)">
<rect x="70" y="102.75862068965516" width="345.0" height="317.2" fill="#B8271F" opacity="0.06"/>
<rect x="415.0" y="20" width="115.0" height="82.8" fill="#2A78D6" opacity="0.06"/>
<line x1="70.0" y1="20" x2="70.0" y2="420" stroke="#DCE1E5" stroke-width="1"/>
<text x="70.0" y="436.0" text-anchor="middle" font-size="9.5" fill="#7C8791" font-family="Times New Roman, Liberation Serif, Nimbus Roman, Times, serif">-30</text>
<line x1="127.5" y1="20" x2="127.5" y2="420" stroke="#DCE1E5" stroke-width="1"/>
<text x="127.5" y="436.0" text-anchor="middle" font-size="9.5" fill="#7C8791" font-family="Times New Roman, Liberation Serif, Nimbus Roman, Times, serif">-25</text>
<line x1="185.0" y1="20" x2="185.0" y2="420" stroke="#DCE1E5" stroke-width="1"/>
<text x="185.0" y="436.0" text-anchor="middle" font-size="9.5" fill="#7C8791" font-family="Times New Roman, Liberation Serif, Nimbus Roman, Times, serif">-20</text>
<line x1="242.5" y1="20" x2="242.5" y2="420" stroke="#DCE1E5" stroke-width="1"/>
<text x="242.5" y="436.0" text-anchor="middle" font-size="9.5" fill="#7C8791" font-family="Times New Roman, Liberation Serif, Nimbus Roman, Times, serif">-15</text>
<line x1="300.0" y1="20" x2="300.0" y2="420" stroke="#DCE1E5" stroke-width="1"/>
<text x="300.0" y="436.0" text-anchor="middle" font-size="9.5" fill="#7C8791" font-family="Times New Roman, Liberation Serif, Nimbus Roman, Times, serif">-10</text>
<line x1="357.5" y1="20" x2="357.5" y2="420" stroke="#DCE1E5" stroke-width="1"/>
<text x="357.5" y="436.0" text-anchor="middle" font-size="9.5" fill="#7C8791" font-family="Times New Roman, Liberation Serif, Nimbus Roman, Times, serif">-5</text>
<line x1="415.0" y1="20" x2="415.0" y2="420" stroke="#DCE1E5" stroke-width="1"/>
<text x="415.0" y="436.0" text-anchor="middle" font-size="9.5" fill="#7C8791" font-family="Times New Roman, Liberation Serif, Nimbus Roman, Times, serif">+0</text>
<line x1="472.5" y1="20" x2="472.5" y2="420" stroke="#DCE1E5" stroke-width="1"/>
<text x="472.5" y="436.0" text-anchor="middle" font-size="9.5" fill="#7C8791" font-family="Times New Roman, Liberation Serif, Nimbus Roman, Times, serif">+5</text>
<line x1="70" y1="378.6" x2="530" y2="378.6" stroke="#DCE1E5" stroke-width="1"/>
<text x="62.0" y="381.6" text-anchor="end" font-size="9.5" fill="#7C8791" font-family="Times New Roman, Liberation Serif, Nimbus Roman, Times, serif">-20</text>
<line x1="70" y1="309.7" x2="530" y2="309.7" stroke="#DCE1E5" stroke-width="1"/>
<text x="62.0" y="312.7" text-anchor="end" font-size="9.5" fill="#7C8791" font-family="Times New Roman, Liberation Serif, Nimbus Roman, Times, serif">-15</text>
<line x1="70" y1="240.7" x2="530" y2="240.7" stroke="#DCE1E5" stroke-width="1"/>
<text x="62.0" y="243.7" text-anchor="end" font-size="9.5" fill="#7C8791" font-family="Times New Roman, Liberation Serif, Nimbus Roman, Times, serif">-10</text>
<line x1="70" y1="171.7" x2="530" y2="171.7" stroke="#DCE1E5" stroke-width="1"/>
<text x="62.0" y="174.7" text-anchor="end" font-size="9.5" fill="#7C8791" font-family="Times New Roman, Liberation Serif, Nimbus Roman, Times, serif">-5</text>
<line x1="70" y1="102.8" x2="530" y2="102.8" stroke="#DCE1E5" stroke-width="1"/>
<text x="62.0" y="105.8" text-anchor="end" font-size="9.5" fill="#7C8791" font-family="Times New Roman, Liberation Serif, Nimbus Roman, Times, serif">+0</text>
<line x1="70" y1="33.8" x2="530" y2="33.8" stroke="#DCE1E5" stroke-width="1"/>
<text x="62.0" y="36.8" text-anchor="end" font-size="9.5" fill="#7C8791" font-family="Times New Roman, Liberation Serif, Nimbus Roman, Times, serif">+5</text>
<line x1="415.0" y1="20" x2="415.0" y2="420" stroke="#7C8791" stroke-width="1.4"/>
<line x1="70" y1="102.8" x2="530" y2="102.8" stroke="#7C8791" stroke-width="1.4"/>
<line x1="150.5" y1="420.0" x2="484.0" y2="20.0" stroke="#7C8791" stroke-width="1.2" stroke-dasharray="3,3" opacity="0.6"/>
<text x="480.0" y="14.0" text-anchor="end" font-size="9" fill="#7C8791" font-family="Times New Roman, Liberation Serif, Nimbus Roman, Times, serif" font-style="italic">y = x (perfect agreement)</text>
<circle cx="389.9" cy="149.1" r="6" fill="#2a78d6" stroke="#FCFCFC" stroke-width="1.2"/>
<circle cx="378.9" cy="97.0" r="6" fill="#2a78d6" stroke="#FCFCFC" stroke-width="1.2"/>
<circle cx="460.1" cy="83.3" r="6" fill="#2a78d6" stroke="#FCFCFC" stroke-width="1.2"/>
<circle cx="291.5" cy="139.7" r="6" fill="#2a78d6" stroke="#FCFCFC" stroke-width="1.2"/>
<polygon points="209.6,83.9 211.5,89.3 217.3,89.5 212.7,93.0 214.4,98.6 209.6,95.3 204.8,98.6 206.5,93.0 201.9,89.5 207.7,89.3" fill="#B8271F" stroke="#FCFCFC" stroke-width="1.2"/>
<line x1="209.6" y1="86.0" x2="209.6" y2="74.0" stroke="#B8271F" stroke-width="1" stroke-dasharray="2,2"/>
<text x="209.6" y="70.0" text-anchor="middle" font-size="9.5" fill="#B8271F" font-family="Times New Roman, Liberation Serif, Nimbus Roman, Times, serif" font-weight="700">FLAME&#215;sign_flip</text>
<text x="209.6" y="81.0" text-anchor="middle" font-size="9.5" fill="#B8271F" font-family="Times New Roman, Liberation Serif, Nimbus Roman, Times, serif" font-weight="700">(sharpest divergence)</text>
<path d="M182.0,200.9 L189.8,208.7 L182.0,216.5 L174.2,208.7 Z" fill="#008300" stroke="#FCFCFC" stroke-width="1.2"/>
<path d="M468.4,58.5 L476.2,66.3 L468.4,74.1 L460.6,66.3 Z" fill="#008300" stroke="#FCFCFC" stroke-width="1.2"/>
<path d="M487.4,49.7 L495.2,57.5 L487.4,65.3 L479.6,57.5 Z" fill="#008300" stroke="#FCFCFC" stroke-width="1.2"/>
<path d="M149.6,376.6 L157.4,384.4 L149.6,392.2 L141.8,384.4 Z" fill="#008300" stroke="#FCFCFC" stroke-width="1.2"/>
<text x="158.6" y="376.4" font-size="10" fill="#B8271F" font-family="Times New Roman, Liberation Serif, Nimbus Roman, Times, serif" font-weight="700">Krum&#215;min_max</text>
<path d="M393.6,107.0 L402.6,123.2 L384.6,123.2 Z" fill="#eda100" stroke="#FCFCFC" stroke-width="1.2"/>
<path d="M417.9,47.3 L426.9,63.5 L408.9,63.5 Z" fill="#eda100" stroke="#FCFCFC" stroke-width="1.2"/>
<path d="M436.2,48.4 L445.2,64.6 L427.2,64.6 Z" fill="#eda100" stroke="#FCFCFC" stroke-width="1.2"/>
<path d="M309.7,120.1 L318.7,136.3 L300.7,136.3 Z" fill="#eda100" stroke="#FCFCFC" stroke-width="1.2"/>
<path d="M296.4,137.2 L305.4,153.4 L287.4,153.4 Z" fill="#eda100" stroke="#FCFCFC" stroke-width="1.2"/>
<rect x="343.9" y="150.2" width="10.2" height="10.2" fill="#e87ba4" stroke="#FCFCFC" stroke-width="1.2" rx="1.5"/>
<rect x="441.1" y="81.0" width="10.2" height="10.2" fill="#e87ba4" stroke="#FCFCFC" stroke-width="1.2" rx="1.5"/>
<rect x="346.6" y="92.8" width="10.2" height="10.2" fill="#e87ba4" stroke="#FCFCFC" stroke-width="1.2" rx="1.5"/>
<rect x="259.2" y="160.0" width="10.2" height="10.2" fill="#e87ba4" stroke="#FCFCFC" stroke-width="1.2" rx="1.5"/>
<rect x="229.6" y="153.1" width="10.2" height="10.2" fill="#e87ba4" stroke="#FCFCFC" stroke-width="1.2" rx="1.5"/>
<line x1="350.8" y1="127.7" x2="362.8" y2="139.7" stroke="#1baf7a" stroke-width="3" stroke-linecap="round"/><line x1="350.8" y1="139.7" x2="362.8" y2="127.7" stroke="#1baf7a" stroke-width="3" stroke-linecap="round"/>
<line x1="459.4" y1="88.6" x2="471.4" y2="100.6" stroke="#1baf7a" stroke-width="3" stroke-linecap="round"/><line x1="459.4" y1="100.6" x2="471.4" y2="88.6" stroke="#1baf7a" stroke-width="3" stroke-linecap="round"/>
<line x1="463.3" y1="87.0" x2="475.3" y2="99.0" stroke="#1baf7a" stroke-width="3" stroke-linecap="round"/><line x1="463.3" y1="99.0" x2="475.3" y2="87.0" stroke="#1baf7a" stroke-width="3" stroke-linecap="round"/>
<line x1="249.8" y1="183.8" x2="261.8" y2="195.8" stroke="#1baf7a" stroke-width="3" stroke-linecap="round"/><line x1="249.8" y1="195.8" x2="261.8" y2="183.8" stroke="#1baf7a" stroke-width="3" stroke-linecap="round"/>
<line x1="274.0" y1="156.5" x2="286.0" y2="168.5" stroke="#1baf7a" stroke-width="3" stroke-linecap="round"/><line x1="274.0" y1="168.5" x2="286.0" y2="156.5" stroke="#1baf7a" stroke-width="3" stroke-linecap="round"/>
<polygon points="310.7,105.3 312.6,110.7 318.4,110.9 313.8,114.4 315.5,119.9 310.7,116.7 305.9,119.9 307.6,114.4 303.0,110.9 308.8,110.7" fill="#B8271F" stroke="#FCFCFC" stroke-width="1.2"/>
<polygon points="316.9,90.2 318.8,95.7 324.6,95.8 320.0,99.4 321.7,104.9 316.9,101.6 312.1,104.9 313.8,99.4 309.2,95.8 315.0,95.7" fill="#B8271F" stroke="#FCFCFC" stroke-width="1.2"/>
<path d="M95.8,307.0 L103.6,314.8 L95.8,322.6 L88.0,314.8 Z" fill="#008300" stroke="#FCFCFC" stroke-width="1.2"/>
<text x="300.0" y="454.0" text-anchor="middle" font-size="11.5" fill="#47525C" font-family="Times New Roman, Liberation Serif, Nimbus Roman, Times, serif" font-weight="600">RNN ΔA (percentage points)</text>
<text x="28.0" y="220.0" text-anchor="middle" font-size="11.5" fill="#47525C" font-family="Times New Roman, Liberation Serif, Nimbus Roman, Times, serif" font-weight="600" transform="rotate(-90 28.0 220.0)">CNN ΔA (percentage points)</text>
<rect x="412" y="298" width="118" height="98" rx="4" fill="#FCFCFC" opacity="0.92" stroke="#DCE1E5" stroke-width="1"/>
<circle cx="424.0" cy="309.0" r="5" fill="#2a78d6" stroke="#FCFCFC" stroke-width="1.2"/>
<text x="436.0" y="312.0" font-size="9" fill="#47525C" font-family="Times New Roman, Liberation Serif, Nimbus Roman, Times, serif">FedAvg</text>
<path d="M424.0,317.5 L430.5,324.0 L424.0,330.5 L417.5,324.0 Z" fill="#008300" stroke="#FCFCFC" stroke-width="1.2"/>
<text x="436.0" y="327.0" font-size="9" fill="#47525C" font-family="Times New Roman, Liberation Serif, Nimbus Roman, Times, serif">Krum</text>
<rect x="419.8" y="334.8" width="8.5" height="8.5" fill="#e87ba4" stroke="#FCFCFC" stroke-width="1.2" rx="1.5"/>
<text x="436.0" y="342.0" font-size="9" fill="#47525C" font-family="Times New Roman, Liberation Serif, Nimbus Roman, Times, serif">Multi-Krum</text>
<path d="M424.0,346.5 L431.5,360.0 L416.5,360.0 Z" fill="#eda100" stroke="#FCFCFC" stroke-width="1.2"/>
<text x="436.0" y="357.0" font-size="9" fill="#47525C" font-family="Times New Roman, Liberation Serif, Nimbus Roman, Times, serif">Median</text>
<line x1="419.0" y1="364.0" x2="429.0" y2="374.0" stroke="#1baf7a" stroke-width="3" stroke-linecap="round"/><line x1="419.0" y1="374.0" x2="429.0" y2="364.0" stroke="#1baf7a" stroke-width="3" stroke-linecap="round"/>
<text x="436.0" y="372.0" font-size="9" fill="#47525C" font-family="Times New Roman, Liberation Serif, Nimbus Roman, Times, serif">Trimmed-Mean</text>
<polygon points="424.0,377.2 425.6,381.8 430.4,381.9 426.6,384.8 428.0,389.5 424.0,386.8 420.0,389.5 421.4,384.8 417.6,381.9 422.4,381.8" fill="#B8271F" stroke="#FCFCFC" stroke-width="1.2"/>
<text x="436.0" y="387.0" font-size="9" fill="#47525C" font-family="Times New Roman, Liberation Serif, Nimbus Roman, Times, serif">FLAME</text>
</g>
</svg>
